PathFileType	4	(X/Y/Z)	C:/Users/beibeiliu/ov580/test_trc\sequence.7_training_dense_left.trc
DataRate	CameraRate	NumFrames	NumMarkers	Units	OrigDataRate	OrigDataStartFrame	OrigNumFrames
120	120	24	19	mm	120	26	103
Frame#	Time	ThumbCMC			ThumbMCP			ThumbIP			ThumbTip			IndexMCP			IndexPIP			IndexTip			MiddleMCP			MiddlePIP			MiddleTip			RingMCP			RingPIP			RingTip			PinkyMCP			PinkyPIP			PinkyTip			BackHand1			BackHand2			BackHand3	
		X0	Y0	Z0	X1	Y1	Z1	X2	Y2	Z2	X3	Y3	Z3	X4	Y4	Z4	X5	Y5	Z5	X6	Y6	Z6	X7	Y7	Z7	X8	Y8	Z8	X9	Y9	Z9	X10	Y10	Z10	X11	Y11	Z11	X12	Y12	Z12	X13	Y13	Z13	X14	Y14	Z14	X15	Y15	Z15	X16	Y16	Z16	X17	Y17	Z17	X18	Y18	Z18	
25	0.208333	-147.22	34.7659	44.5548	-133.74	40.5134	21.6085	-129.74	46.8045	-1.14452	-123.463	55.3891	-11.2813	-144.173	-0.282734	-14.7718	-120.345	-9.55954	-2.62755	-123.32	4.14	23.4367	-147.428	-15.6131	-7.71057	-122.223	-19.7795	8.66834	-134.433	-1.89903	33.4856	-152.293	-30.0887	6.02217	-130.524	-24.6567	25.3293	-145.71	-6.39459	42.3727	-157.672	-35.1711	17.2104	-138.779	-29.7689	31.1632	-149.329	-10.1768	43.4131	-187.844	-1.77923	35.4059	-186.96	12.0985	55.6054	-175.909	25.2722	37.805	
26	0.216667	-146.301	38.2312	41.6005	-135.32	40.7957	19.3473	-133.132	44.2783	-1.05778	-127.166	52.6291	-14.4775	-145.009	7.18743	-14.5543	-123.695	-10.7838	-5.85168	-122.175	0.740279	20.817	-150.062	-16.4538	-6.92294	-124.901	-19.4416	4.94901	-130.5	-2.91395	31.4515	-151.815	-25.0722	3.08807	-130.99	-21.8239	21.3951	-144.036	-2.21939	38.673	-161.993	-35.9181	17.6045	-140.085	-27.0569	28.1164	-147.063	-9.08443	42.9821	-187.587	-2.65188	31.6046	-189.17	10.6375	60.6839	-175.126	27.3472	36.5716	
27	0.225	-148.929	34.8504	43.4427	-135.376	40.6499	21.8818	-134.076	47.6394	-3.18438	-126.927	57.4024	-14.148	-150.21	4.42619	-13.2584	-122.71	-8.34911	-6.45543	-126.312	-0.867385	21.1711	-149.897	-13.4875	-9.07857	-127.658	-23.2757	6.83623	-134.202	0.414623	31.5732	-157.028	-27.644	4.49291	-133.834	-23.5625	22.5644	-143.489	-7.16431	39.2472	-164.343	-37.6331	17.5431	-143.086	-30.6489	25.7421	-150.514	-10.2396	41.3778	-186.289	1.61479	32.766	-187.96	9.70518	60.5765	-177.134	25.3656	35.1117	
28	0.233333	-148.438	37.9659	39.1254	-138.609	36.6591	20.9476	-135.041	43.6189	-2.00382	-129.113	51.2876	-15.5693	-151.273	3.91712	-16.9098	-130.04	-10.9739	-9.15049	-133.157	2.22025	21.4727	-156.852	-9.99467	-9.80402	-130.405	-21.3634	4.63614	-137.36	-6.36695	28.89	-158.471	-25.7962	2.57803	-136.848	-22.1272	18.6667	-146.35	-4.99172	35.6761	-168.28	-32.8204	14.6125	-146.857	-29.0722	28.682	-155.209	-8.17219	41.8368	-192.559	0.599929	29.417	-189.496	14.6939	59.627	-179.378	29.2065	36.3575	
29	0.241667	-148.309	37.7671	39.4244	-141.025	36.3586	15.2348	-132.601	45.504	-4.46302	-126.43	49.6282	-19.9514	-159.811	6.85941	-18.9429	-136.91	-10.5405	-12.9953	-136.372	5.00922	15.3971	-166.424	-11.9656	-13.1447	-142.111	-23.044	0.644666	-145.464	-0.852534	26.0083	-169.556	-21.2845	-0.564408	-148.455	-22.9599	15.1346	-155.246	-5.85197	34.8269	-178.224	-26.5089	11.7701	-156.22	-25.9954	25.1309	-163.062	-3.82235	36.6481	-194.375	12.4373	29.2567	-191.275	20.5642	53.892	-179.552	35.7032	33.5508	
30	0.25	-154.128	38.7849	30.7977	-140.27	38.7049	7.49131	-136.46	37.0046	-10.5172	-128.592	41.0044	-29.7784	-164.002	11.0767	-27.9083	-154.071	-10.7769	-18.5491	-150.879	3.26211	12.4199	-181.408	-1.40092	-17.1091	-161.06	-21.7435	-3.75437	-159.145	-2.95727	20.9533	-186.112	-13.576	-6.82156	-166.94	-20.3963	12.8419	-166.476	3.36889	26.6764	-195.603	-17.3237	7.15192	-176.837	-21.3648	19.5011	-175.14	4.96308	34.096	-206.944	25.6027	21.516	-198.566	34.3982	49.5091	-183.26	45.2457	26.7986	
31	0.258333	-152.845	39.3394	26.8526	-139.15	32.5212	3.10791	-137.552	30.6004	-15.5625	-125.763	30.5961	-32.6776	-174.821	13.8678	-32.2117	-165.944	-9.08299	-23.4291	-159.448	2.17467	5.43572	-189.243	4.68814	-24.8215	-177.048	-15.6781	-8.44864	-167.849	3.05564	16.0257	-203.411	0.329906	-10.0456	-186.281	-13.2422	3.15112	-178.3	7.66181	22.4119	-215.181	0.146196	2.16045	-195.261	-12.2332	15.9287	-185.538	6.62434	27.2434	-207.174	43.45	15.1462	-196.142	49.3041	42.7138	-175.921	53.3509	18.0522	
32	0.266667	-152.503	33.0819	22.843	-142.112	22.4832	3.34017	-134.445	17.7042	-17.3619	-128.881	14.6645	-33.793	-174.68	17.5697	-34.4281	-179.548	-9.81572	-23.5369	-172.558	0.595495	3.97966	-196.858	13.6622	-26.9011	-193.514	-12.9356	-12.1961	-179.179	3.14013	12.5548	-208.567	11.5781	-17.2481	-201.115	-7.34349	-0.122376	-188.229	9.57394	18.9588	-223.659	13.8147	-3.80134	-207.182	-1.79209	7.15626	-193.234	15.3248	22.5889	-203.048	53.9804	8.21706	-191.207	57.0302	36.8542	-175.233	53.3971	16.3696	
33	0.275	-148.223	23.4031	26.2039	-139.6	9.89345	6.71505	-131.453	2.68818	-15.2237	-124.285	-2.79531	-23.7016	-175.873	10.2764	-32.5628	-186.439	-13.3655	-20.8596	-176.636	-1.55682	5.58538	-193.161	8.99098	-29.1545	-198.846	-12.4792	-11.8436	-185.402	0.737335	13.2865	-206.915	11.6241	-19.9876	-205.623	-4.07206	-1.22014	-191.303	12.9409	18.3722	-222.515	17.4419	-10.318	-211.845	3.04014	4.57067	-198.48	13.7755	22.9697	-189.916	53.9622	3.0094	-184.358	58.0479	28.8075	-165.792	49.6981	12.9537	
34	0.283333	-147.794	16.7312	33.6117	-135.439	-0.456107	19.96	-125.393	-8.05467	3.26776	-113.263	-14.5599	-7.25663	-163.486	-1.12414	-27.0372	-180.172	-20.9195	-11.1468	-174.589	-7.93616	10.7839	-183.468	-0.748494	-27.3607	-194.099	-17.4977	-5.40673	-179.752	1.55348	16.8975	-199.996	7.5415	-20.8752	-198.284	-9.7502	2.00909	-187.609	10.6512	19.779	-212.544	19.0524	-13.7975	-208.229	-0.829913	5.02731	-192.918	12.2413	21.033	-180.013	47.5152	2.15971	-178.777	54.3908	31.8502	-159.392	41.8517	15.733	
35	0.291667	-143.891	12.8783	44.4723	-128.574	-0.876833	28.6537	-115.954	-7.82222	17.5371	-99.8958	-14.3882	11.489	-149.04	-11.7222	-18.8603	-162.954	-31.7496	-0.862999	-162.379	-13.813	18.6339	-173.138	-10.1555	-21.3762	-179.606	-27.1399	1.22578	-171.11	-6.28338	23.2229	-188.109	-4.3007	-17.008	-188.742	-18.0804	8.46765	-180.433	2.05356	22.8841	-201.676	0.918883	-13.3765	-198.312	-10.6533	9.18872	-190.514	5.09558	24.3493	-176.197	40.2907	1.71033	-178.542	49.5337	30.618	-155.905	35.0958	23.2983	
36	0.3	-139.862	16.2098	50.5057	-122.823	5.04057	36.716	-106.551	0.792091	28.2091	-86.8159	-0.161694	29.4719	-139.041	-13.8566	-10.1627	-147.865	-35.2203	3.25631	-152.739	-15.0109	25.6249	-156.139	-16.065	-13.6226	-160.81	-36.3986	7.17957	-165.144	-11.2921	28.6792	-174.164	-14.1971	-10.6674	-174.266	-28.2225	11.9595	-170.171	-1.23686	28.3505	-187.154	-13.6087	-6.20178	-183.449	-21.6411	14.5056	-181.579	-0.350174	30.0834	-178.343	30.9612	6.96828	-180.668	41.3389	31.2586	-155.778	32.8247	26.6824	
37	0.308333	-138.58	21.4929	51.4683	-117.289	15.1664	40.1993	-101.066	14.2464	34.0189	-83.2822	18.7207	34.9194	-126.566	-15.0729	-3.88083	-129.524	-33.1996	14.5831	-136.751	-11.7126	33.6748	-145.481	-17.7921	-6.54977	-144.75	-37.8793	15.8131	-153.977	-14.0282	34.5906	-162.242	-23.1236	-3.28464	-155.508	-31.7199	24.2286	-165.225	-5.69498	35.8922	-178.152	-22.2615	-1.25685	-171.663	-31.2767	22.9067	-167.745	-10.801	36.256	-174.49	22.6726	13.1246	-187.285	32.4895	33.8075	-153.277	32.7667	28.5408	
38	0.316667	-141.405	28.8851	51.5097	-116.548	27.2754	44.324	-99.157	31.6652	33.9941	-86.9479	34.6173	30.8959	-119.272	-2.81628	-0.723738	-111.777	-22.9306	19.7619	-129.741	-7.16248	37.4584	-131.471	-14.4155	-1.57359	-128.007	-33.2184	22.5742	-143.954	-9.12264	40.3342	-146.22	-25.3112	3.98493	-140.722	-31.6787	29.6162	-152.966	-9.57289	42.1573	-162.518	-29.9133	8.79708	-156.336	-34.4948	31.3212	-163.016	-9.00845	44.4407	-177.557	12.8375	14.9216	-184.936	25.9332	36.7519	-158.284	34.7563	29.2406	
39	0.325	-147.732	35.2777	48.4157	-126.021	35.1799	39.679	-106.541	45.7638	25.942	-93.5741	57.6031	21.2992	-115.928	1.05347	-0.575428	-104.512	-11.1015	17.3598	-123.995	3.74378	39.2455	-127.375	-15.959	0.893142	-117.046	-23.7357	27.1721	-135.064	-7.74454	43.8384	-137.626	-23.026	8.33727	-129.73	-25.198	34.9102	-148.867	-6.28149	47.0203	-150.079	-34.1247	16.795	-142.235	-29.9159	38.6838	-155.86	-8.33233	46.6686	-177.439	7.91387	15.8839	-190.256	15.2663	37.9691	-166.291	33.1957	29.3978	
40	0.333333	-151.538	44.496	43.6006	-132.272	45.7859	32.4347	-118.548	57.2741	19.6095	-109.229	70.0317	14.639	-116.86	6.9051	-2.04673	-101.817	2.851	18.9353	-121.187	10.7562	39.0052	-122.888	-9.98382	3.49527	-107.96	-12.4599	27.7636	-128.267	6.54376	44.5349	-130.802	-22.6596	13.4883	-119.072	-16.3714	37.5511	-142.087	1.70986	47.5516	-141.142	-30.2953	20.7569	-131.472	-24.4725	43.5612	-146.211	-2.95546	50.3064	-176.568	-4.46704	16.7843	-191.141	8.61676	39.758	-174.797	27.0188	25.7417	
41	0.341667	-159.252	47.8782	39.171	-139.553	50.1068	31.3501	-125.938	64.9496	12.2833	-120.203	74.9862	3.51117	-117.328	16.0429	-2.04117	-97.6602	14.5435	16.4505	-117.38	20.8518	38.45	-115.682	-4.53008	6.43354	-100.929	1.28061	30.7914	-128.044	11.7376	46.5976	-122.184	-18.0808	18.078	-111.356	-3.46302	39.2314	-135.187	9.50667	47.9541	-128.388	-28.7926	29.4647	-121.525	-13.0395	47.9958	-144.758	2.05368	53.5607	-170.631	-6.53546	21.2625	-186.822	5.95087	40.7777	-175.651	25.4412	25.5786	
42	0.35	-159.56	45.1036	35.5025	-143.687	57.0737	25.0874	-129.764	61.5605	5.97288	-124.907	73.1584	-3.16613	-112.514	22.0241	-1.37937	-94.6453	26.7275	21.9857	-119.639	33.2975	38.8543	-105.933	2.59325	11.6945	-94.6828	12.0089	35.7693	-124.964	24.7324	45.4217	-111.512	-10.7052	25.1394	-104.776	5.09816	47.9037	-130.275	15.6035	50.8024	-116.004	-21.3764	37.4429	-111.321	-1.60305	52.453	-135.057	9.66615	53.9581	-162.866	-8.11964	27.685	-180.877	0.999758	45.3225	-172.241	19.8613	26.3044	
43	0.358333	-160.781	42.3567	33.5327	-144.594	50.0186	19.2031	-135.169	57.4664	2.25189	-128.706	67.2751	-15.4925	-102.812	19.5858	4.81372	-88.1367	36.4181	20.5073	-112.262	40.346	39.4934	-98.5287	5.67735	17.6754	-87.6227	27.566	38.3724	-116.679	29.3075	47.9369	-95.7314	-0.874302	32.5289	-93.3603	17.0994	49.4199	-123.279	19.5107	55.7226	-100.07	-9.63083	44.25	-99.8048	9.31163	58.0618	-123.992	15.8316	58.2201	-147.196	-11.4407	32.6202	-169.387	-7.18282	51.9759	-164.948	14.0773	28.2385	
44	0.366667	-157.851	27.7891	36.1638	-146.964	39.6967	13.3699	-137.224	41.6518	-10.1765	-130.783	44.37	-22.9581	-98.5709	18.1694	4.37182	-84.7558	37.5173	18.7342	-112.079	38.4334	36.6237	-90.4253	8.22253	18.3327	-80.0055	30.2744	35.8135	-112.329	31.9114	46.6471	-83.0733	3.57098	37.6324	-85.3695	24.6735	49.8725	-115.235	20.8816	56.7421	-88.8485	-7.17877	50.4342	-91.6049	17.9178	61.0637	-118.138	15.8154	57.2947	-132.725	-17.5467	42.9997	-155.509	-11.9205	55.655	-153.256	0.472537	28.8247	
45	0.375	-153.8	10.3838	33.2407	-145.296	15.6989	8.98644	-137.919	15.6994	-8.44265	-136.608	17.4617	-24.8483	-94.498	6.42264	1.59785	-88.1396	31.8326	11.581	-112.262	30.8417	28.6318	-82.0602	3.48494	16.9364	-80.6519	29.0178	32.3642	-108.808	26.328	42.7833	-78.7073	0.695098	32.6154	-82.2612	24.3391	42.2639	-111.24	15.8916	52.629	-75.7221	-2.51821	51.3591	-83.7139	18.897	57.5526	-108.756	15.5421	57.8045	-118.194	-28.0062	53.3154	-144.597	-24.0718	64.5353	-144.493	-15.8707	37.2999	
46	0.383333	-154.014	-7.63924	33.0593	-151.136	-4.15072	10.2643	-144.594	-9.36703	-8.44588	-140.775	-13.4635	-27.4344	-97.9243	-11.9439	-1.33875	-89.5784	14.8336	1.92021	-112.14	16.8319	24.0678	-83.7887	-10.107	10.9615	-84.691	20.4094	18.9887	-109.293	15.7037	35.7046	-75.0046	-9.55354	33.347	-84.1331	17.2534	32.327	-107.651	11.5634	48.7083	-72.32	-7.45406	46.7392	-80.0654	12.5777	44.9893	-104.502	8.51006	52.3433	-113.548	-35.5977	54.2184	-136.107	-30.5025	73.0725	-141.084	-29.0908	42.3665	
47	0.391667	-159.936	-15.7297	37.5695	-153.888	-18.6522	15.9605	-158.475	-28.0655	-6.92018	-161.509	-31.0005	-21.1872	-106.017	-27.9413	-4.73854	-101.518	-3.56962	-7.68553	-122.748	4.55997	15.0725	-92.6623	-27.6511	9.66093	-88.7706	3.77838	9.73756	-115.965	3.93355	28.3115	-80.342	-18.7028	24.1485	-89.5211	4.31035	22.3336	-112.208	2.36547	41.8103	-78.5724	-19.9496	40.5514	-85.537	3.41999	36.6541	-109.188	-1.65369	46.8172	-116.223	-39.7055	60.2503	-135.5	-36.274	74.5159	-145.098	-39.0197	48.819	
48	0.4	-168.732	-19.9062	45.8849	-167.195	-26.3417	22.086	-177.169	-38.2359	2.04735	-179	-46.7865	-12.6137	-125.817	-46.2801	-4.28134	-116.358	-20.709	-11.461	-132.201	-7.93291	11.5874	-107.42	-43.7158	6.9431	-105.843	-13.5368	-1.69855	-127.603	-9.16806	22.0523	-98.0708	-37.3488	18.3594	-98.603	-8.85527	15.7132	-122.465	-11.0031	33.818	-85.6797	-31.2006	31.8496	-96.5414	-9.69073	25.6559	-115.212	-9.04185	38.2412	-122.906	-47.9958	62.7021	-137.258	-38.6807	78.003	-151.025	-43.9211	58.2998	
